# xmcd
#
# Track frame offsets:
#	150
#	14140
#	30386
#	46947
#	63493
#	81516
#	97795
#	112799
#	129088
#	143607
#	159745
#	176922
#	192881
#	209532
#	222554
#	238506
#	254057
#	255067
#	255804
#	256514
#	257222
#	258014
#	258764
#	259539
#	260262
#	261104
#	262154
#	262947
#	263691
#	264442
#	265319
#	266146
#	267009
#	267941
#	268846
#	269551
#	270171
#	270868
#	271633
#	272396
#	273131
#	273826
#	274658
#
# Disc length: 3668 seconds
#
# Revision: 1
# Processed by: cddbd v1.5.2PL0 Copyright (c) Steve Scherf et al.
# Submitted via: audiograbber 1.83.01
#
DISCID=690e522b
DTITLE=Various Artist - CDX Volume 636 (July 11, 2016)
DYEAR=2016
DGENRE=Country
TTITLE0=Eric Paslay - Angels In This Town
TTITLE1=Darius Rucker - If I Told You
TTITLE2=Lauren Alaina - Road Less Traveled
TTITLE3=Cody Jinks -  I'm Not The Devil
TTITLE4=Kenny Davin Fine and The Tennessee Texans - The Ballad of the Tennessee T
TTITLE4=exans 
TTITLE5=Lucas Hoge - Boom Boom
TTITLE6=Tim Daly - Borrowed Angel
TTITLE7=Springs - Dance With Me
TTITLE8=Kelsey Hickman - Gone
TTITLE9=Eileen Carey - In The Air
TTITLE10=Curtis Braly - Love You Down
TTITLE11=Kaylyn - Show You Around 
TTITLE12=Matt Austin - The Island
TTITLE13=Dan Johnson and the Salt Cedar Rebels - This is How We Texas
TTITLE14=Smith and Wesley - You're The One
TTITLE15=Terra Bella - You've Got That Somethin'
TTITLE16=Alexandra Demetree - Artist Liner - My New Single
TTITLE17=Alexandra Demetree - Artist Liner - Today's Best Country
TTITLE18=Alexandra Demetree - Artist Liner - Kickin' Country
TTITLE19=Alexandra Demetree - Artist Liner - Hometown Country
TTITLE20=Alexandra Demetree - Artist Liner - Super Country
TTITLE21=Alexandra Demetree - Artist Liner - Today's Hot country
TTITLE22=Alexandra Demetree - Artist Liner - Best In Today's Country
TTITLE23=Alexandra Demetree - Artist Liner - More of the Country You Love
TTITLE24=Alexandra Demetree - Artist Liner - Howlin' Country
TTITLE25=Hillbilly Vegas - Artist Liner - Our New Single
TTITLE26=Hillbilly Vegas - Artist Liner - Today's Best New Country
TTITLE27=Hillbilly Vegas - Artist Liner - Kickin' Country
TTITLE28=Hillbilly Vegas - Artist Liner - Hometown Country
TTITLE29=Hillbilly Vegas - Artist Liner - Super Country
TTITLE30=Hillbilly Vegas - Artist Liner - Today's Hot Country
TTITLE31=Hillbilly Vegas - Artist Liner - More of the Country You Love
TTITLE32=Hillbilly Vegas - Artist Liner - Howlin' Country
TTITLE33=Steve Dorian - Artist Liner - My New Single
TTITLE34=Steve Dorian - Artist Liner - Today's Best Country
TTITLE35=Steve Dorian - Artist Liner - Kickin' Country
TTITLE36=Steve Dorian - Artist Liner - Hometown Country
TTITLE37=Steve Dorian - Artist Liner - Super Country
TTITLE38=Steve Dorian - Artist Liner - Today's Hot Country Music
TTITLE39=Steve Dorian - Artist Liner - Best In Today's Country Music
TTITLE40=Steve Dorian - Artist Liner - More of the Country You Love
TTITLE41=Steve Dorian - Artist Liner - Howlin' Country
TTITLE42=Eileen Carey - Artist Liner - My New Single
EXTD=
EXTT0=
EXTT1=
EXTT2=
EXTT3=
EXTT4=
EXTT5=
EXTT6=
EXTT7=
EXTT8=
EXTT9=
EXTT10=
EXTT11=
EXTT12=
EXTT13=
EXTT14=
EXTT15=
EXTT16=
EXTT17=
EXTT18=
EXTT19=
EXTT20=
EXTT21=
EXTT22=
EXTT23=
EXTT24=
EXTT25=
EXTT26=
EXTT27=
EXTT28=
EXTT29=
EXTT30=
EXTT31=
EXTT32=
EXTT33=
EXTT34=
EXTT35=
EXTT36=
EXTT37=
EXTT38=
EXTT39=
EXTT40=
EXTT41=
EXTT42=
PLAYORDER=
